<?xml version="1.0" encoding="UTF-8"?>
<svg xmlns="http://www.w3.org/2000/svg" version="1.1" width="2000px" height="2000px" style="shape-rendering:geometricPrecision; text-rendering:geometricPrecision; image-rendering:optimizeQuality; fill-rule:evenodd; clip-rule:evenodd" xmlns:xlink="http://www.w3.org/1999/xlink">
<g><path style="opacity:1" fill="#FFFFFF" d="M 955.5,-0.5 C 984.833,-0.5 1014.17,-0.5 1043.5,-0.5C 1297.39,13.8213 1515.72,108.321 1698.5,283C 1883.85,468.275 1984.19,692.442 1999.5,955.5C 1999.5,984.833 1999.5,1014.17 1999.5,1043.5C 1985.18,1297.39 1890.68,1515.72 1716,1698.5C 1530.72,1883.85 1306.56,1984.19 1043.5,1999.5C 1014.17,1999.5 984.833,1999.5 955.5,1999.5C 701.614,1985.18 483.28,1890.68 300.5,1716C 115.146,1530.72 14.8131,1306.56 -0.5,1043.5C -0.5,1014.17 -0.5,984.833 -0.5,955.5C 13.8213,701.614 108.321,483.28 283,300.5C 468.275,115.146 692.442,14.8131 955.5,-0.5 Z M 975.5,87.5 C 1210.44,84.628 1417.1,158.461 1595.5,309C 1773.49,466.104 1876.99,663.271 1906,900.5C 1929.36,1145.99 1866.7,1366.32 1718,1561.5C 1556.61,1762.15 1347.11,1877.32 1089.5,1907C 847.195,1927.78 629.861,1864.78 437.5,1718C 236.848,1556.61 121.681,1347.11 92,1089.5C 71.1585,844.763 135.492,625.763 285,432.5C 437.791,244.805 634.625,132.638 875.5,96C 908.862,91.6529 942.195,88.8196 975.5,87.5 Z"/></g>
<g><path style="opacity:1" fill="#FFFFFF" d="M 874.5,374.5 C 957.833,374.5 1041.17,374.5 1124.5,374.5C 1124.5,416.167 1124.5,457.833 1124.5,499.5C 1166.17,499.5 1207.83,499.5 1249.5,499.5C 1249.5,541.167 1249.5,582.833 1249.5,624.5C 1291.17,624.5 1332.83,624.5 1374.5,624.5C 1374.5,666.167 1374.5,707.833 1374.5,749.5C 1416.17,749.5 1457.83,749.5 1499.5,749.5C 1499.5,791.167 1499.5,832.833 1499.5,874.5C 1374.5,874.5 1249.5,874.5 1124.5,874.5C 1124.5,1124.5 1124.5,1374.5 1124.5,1624.5C 1041.17,1624.5 957.833,1624.5 874.5,1624.5C 874.5,1374.5 874.5,1124.5 874.5,874.5C 749.5,874.5 624.5,874.5 499.5,874.5C 499.5,832.833 499.5,791.167 499.5,749.5C 541.167,749.5 582.833,749.5 624.5,749.5C 624.5,707.833 624.5,666.167 624.5,624.5C 666.167,624.5 707.833,624.5 749.5,624.5C 749.5,582.833 749.5,541.167 749.5,499.5C 791.167,499.5 832.833,499.5 874.5,499.5C 874.5,457.833 874.5,416.167 874.5,374.5 Z"/></g>
</svg>
